<?xml version="1.0" encoding="utf-8"?>
<!-- Generator: Adobe Illustrator 24.3.0, SVG Export Plug-In . SVG Version: 6.00 Build 0)  -->
<svg version="1.1" id="圖層_1" xmlns="http://www.w3.org/2000/svg" xmlns:xlink="http://www.w3.org/1999/xlink" x="0px" y="0px"
	 viewBox="0 0 135 65" style="enable-background:new 0 0 135 65;" xml:space="preserve">
<style type="text/css">
	.st0{fill:#FA4616;}
</style>
<g>
	<path class="st0" d="M6.3,11.4h44v44h-44V11.4z M10.9,50.8h34.9V15.9H10.9V50.8z M28.5,22.7H33v13.3c0,6-3.4,9.7-9.2,9.7
		c-5.7,0-9-3.6-9-9.7V22.7h4.6v13.3c0,3.3,1.4,5.4,4.6,5.4c3.1,0,4.5-1.9,4.5-5.4V22.7z M41.7,22.7c0,1.6-1.2,2.7-2.8,2.7
		c-1.6,0-2.8-1.1-2.8-2.7c0-1.7,1.2-2.8,2.8-2.8C40.5,19.9,41.7,21.1,41.7,22.7z M36.6,27.6h4.6v17.9h-4.6V27.6z M71.8,30.4
		c0,4.9-3.2,7.8-8.2,7.8h-4.1v7.3h-4.6V22.7h8.7C68.6,22.7,71.8,25.7,71.8,30.4z M67.1,30.4c0-2.5-1.4-4-4-4h-3.6v8.1h3.6
		C65.7,34.5,67.1,33.1,67.1,30.4z M87.1,27.6h4.6v17.9h-4.6v-2c-1.2,1.4-3.1,2.2-5.8,2.2c-4.9,0-8.3-3.8-8.3-9.1
		c0-5.3,3.3-9.2,8.3-9.2c2.6,0,4.6,0.9,5.8,2.5V27.6z M87.1,36.6c0-3.1-1.8-5.2-4.7-5.2c-2.9,0-4.7,2-4.7,5.2c0,3,1.6,5.1,4.7,5.1
		C85.1,41.7,87.1,39.7,87.1,36.6z M102.8,41.6h1.8v3.9h-2.4c-4.3,0-6.2-2.1-6.2-6.3v-7.8h-2.1v-3.9H96v-4.9h4.6v4.9h4v3.9h-4v7.8
		C100.5,40.8,101,41.6,102.8,41.6z M124.2,35.1v10.4h-4.6v-9.9c0-2.7-1.4-4.5-4.1-4.5c-2.7,0-4.3,1.8-4.3,4.9v9.5h-4.6V21.6h4.6v7.8
		c1.1-1.4,2.9-2.1,5.4-2.1C120.9,27.4,124.2,30.4,124.2,35.1z M123.5,21.6h1.5v0.3h-0.6v1.8h-0.4v-1.8h-0.6V21.6z M127.7,21.6v2.1
		h-0.3v-1.6l-0.7,1.6h-0.3l-0.7-1.6v1.6h-0.3v-2.1h0.4l0.7,1.6l0.7-1.6H127.7z"/>
</g>
</svg>
